<?xml version="1.0" encoding="UTF-8"?>
<svg width="145px" height="47px" viewBox="0 0 145 47" version="1.1" xmlns="http://www.w3.org/2000/svg" xmlns:xlink="http://www.w3.org/1999/xlink">
    <!-- Generator: Sketch 62 (91390) - https://sketch.com -->
    <title>Group 23</title>
    <desc>Created with Sketch.</desc>
    <defs>
        <path d="M0,4.63457143 C0,7.02685714 1.93928571,8.96614286 4.33157143,8.96614286 L4.33157143,8.96614286 C6.72385714,8.96614286 8.66314286,7.02685714 8.66314286,4.63457143 L8.66314286,4.63457143 C8.66314286,2.24271429 6.72385714,0.303 4.33157143,0.303 L4.33157143,0.303 C1.93928571,0.303 0,2.24271429 0,4.63457143" id="path-1"></path>
        <linearGradient x1="0%" y1="49.9998259%" x2="99.999343%" y2="49.9998259%" id="linearGradient-3">
            <stop stop-color="#DA0080" offset="0%"></stop>
            <stop stop-color="#DF0108" offset="100%"></stop>
        </linearGradient>
        <path d="M0,4.71514286 C0,6.89228571 1.60628571,8.694 3.69857143,9 L3.69857143,9 L4.96457143,9 C7.05642857,8.694 8.66314286,6.89228571 8.66314286,4.71514286 L8.66314286,4.71514286 C8.66314286,2.32285714 6.72385714,0.383571429 4.33157143,0.383571429 L4.33157143,0.383571429 C1.93928571,0.383571429 0,2.32285714 0,4.71514286" id="path-4"></path>
        <linearGradient x1="0%" y1="50.0000487%" x2="99.999343%" y2="50.0000487%" id="linearGradient-6">
            <stop stop-color="#DA0080" offset="0%"></stop>
            <stop stop-color="#DF0108" offset="100%"></stop>
        </linearGradient>
        <path d="M2.75592063,0.456944444 C0.916031746,0.845833333 -0.144079365,2.4837963 0.155126984,4.34583333 L0.155126984,4.34583333 C0.28631746,5.15740741 0.711650794,5.9087963 1.32111111,6.47268519 L1.32111111,6.47268519 L17.9928889,23.9069444 C18.8661111,24.4893519 19.8709841,24.8703704 20.9343175,25 L20.9343175,25 L22.5670635,25 C22.7622381,24.9768519 22.9587937,24.9435185 23.1558095,24.9023148 L23.1558095,24.9023148 C26.835127,24.124537 29.1905714,20.4944444 28.4172381,16.7939815 L28.4172381,16.7939815 C27.9868413,14.7347222 26.6776984,13.0884259 24.967619,12.1666667 L24.967619,12.1666667 L5.77007937,1.30046296 C5.02896825,0.802777778 4.23215873,0.394444444 3.34973016,0.394444444 L3.34973016,0.394444444 C3.15593651,0.394444444 2.95846032,0.413888889 2.75592063,0.456944444" id="path-7"></path>
        <linearGradient x1="0.000711825885%" y1="50.0000478%" x2="100.00009%" y2="50.0000478%" id="linearGradient-9">
            <stop stop-color="#DA0080" offset="0%"></stop>
            <stop stop-color="#DF0108" offset="100%"></stop>
        </linearGradient>
        <path d="M14.3309762,0.320285714 C14.0894048,0.320285714 13.8442143,0.341095238 13.5963095,0.382714286 L13.5963095,0.382714286 C11.8835952,0.670428571 10.759881,2.04838095 9.90578571,3.59733333 L9.90578571,3.59733333 L1.20514286,14.806881 C0.476357143,15.5623571 0.141595238,16.3558333 0.279571429,17.1004524 L0.279571429,17.1004524 C0.491738095,18.2431667 1.59011905,18.9977381 2.73238095,18.7855714 L2.73238095,18.7855714 C3.31685714,18.677 4.15014286,17.9604286 4.62559524,17.4533095 L4.62559524,17.4533095 L15.9649762,8.79654762 C17.3375,7.75471429 18.4897143,6.48307143 18.5842619,4.84590476 L18.5842619,4.84590476 L18.5842619,4.40528571 C18.576119,4.25916667 18.559381,4.11033333 18.5340476,3.95878571 L18.5340476,3.95878571 C18.1730476,1.8145 16.419619,0.320285714 14.3377619,0.320285714 L14.3377619,0.320285714 L14.3309762,0.320285714 Z" id="path-10"></path>
        <linearGradient x1="0.000237901493%" y1="50.4769894%" x2="100.034479%" y2="50.4769894%" id="linearGradient-12">
            <stop stop-color="#DA0080" offset="0%"></stop>
            <stop stop-color="#DF0108" offset="100%"></stop>
        </linearGradient>
    </defs>
    <g id="Diseño-desktop" stroke="none" stroke-width="1" fill="none" fill-rule="evenodd">
        <g id="1.-Home-inicio" transform="translate(-29.000000, -22.000000)">
            <g id="Group-23" transform="translate(29.000000, 22.000000)">
                <g id="Group-3">
                    <mask id="mask-2" fill="white">
                        <use xlink:href="#path-1"></use>
                    </mask>
                    <g id="Clip-2"></g>
                    <path d="M0,4.63457143 C0,7.02685714 1.93928571,8.96614286 4.33157143,8.96614286 L4.33157143,8.96614286 C6.72385714,8.96614286 8.66314286,7.02685714 8.66314286,4.63457143 L8.66314286,4.63457143 C8.66314286,2.24271429 6.72385714,0.303 4.33157143,0.303 L4.33157143,0.303 C1.93928571,0.303 0,2.24271429 0,4.63457143" id="Fill-1" fill="url(#linearGradient-3)" mask="url(#mask-2)"></path>
                </g>
                <g id="Group-6" transform="translate(0.000000, 38.000000)">
                    <mask id="mask-5" fill="white">
                        <use xlink:href="#path-4"></use>
                    </mask>
                    <g id="Clip-5"></g>
                    <path d="M0,4.71514286 C0,6.89228571 1.60628571,8.694 3.69857143,9 L3.69857143,9 L4.96457143,9 C7.05642857,8.694 8.66314286,6.89228571 8.66314286,4.71514286 L8.66314286,4.71514286 C8.66314286,2.32285714 6.72385714,0.383571429 4.33157143,0.383571429 L4.33157143,0.383571429 C1.93928571,0.383571429 0,2.32285714 0,4.71514286" id="Fill-4" fill="url(#linearGradient-6)" mask="url(#mask-5)"></path>
                </g>
                <g id="Group-9" transform="translate(12.000000, 22.000000)">
                    <mask id="mask-8" fill="white">
                        <use xlink:href="#path-7"></use>
                    </mask>
                    <g id="Clip-8"></g>
                    <path d="M2.75592063,0.456944444 C0.916031746,0.845833333 -0.144079365,2.4837963 0.155126984,4.34583333 L0.155126984,4.34583333 C0.28631746,5.15740741 0.711650794,5.9087963 1.32111111,6.47268519 L1.32111111,6.47268519 L17.9928889,23.9069444 C18.8661111,24.4893519 19.8709841,24.8703704 20.9343175,25 L20.9343175,25 L22.5670635,25 C22.7622381,24.9768519 22.9587937,24.9435185 23.1558095,24.9023148 L23.1558095,24.9023148 C26.835127,24.124537 29.1905714,20.4944444 28.4172381,16.7939815 L28.4172381,16.7939815 C27.9868413,14.7347222 26.6776984,13.0884259 24.967619,12.1666667 L24.967619,12.1666667 L5.77007937,1.30046296 C5.02896825,0.802777778 4.23215873,0.394444444 3.34973016,0.394444444 L3.34973016,0.394444444 C3.15593651,0.394444444 2.95846032,0.413888889 2.75592063,0.456944444" id="Fill-7" fill="url(#linearGradient-9)" mask="url(#mask-8)"></path>
                </g>
                <g id="Group-12" transform="translate(21.000000, 0.000000)">
                    <mask id="mask-11" fill="white">
                        <use xlink:href="#path-10"></use>
                    </mask>
                    <g id="Clip-11"></g>
                    <path d="M14.3309762,0.320285714 C14.0894048,0.320285714 13.8442143,0.341095238 13.5963095,0.382714286 L13.5963095,0.382714286 C11.8835952,0.670428571 10.759881,2.04838095 9.90578571,3.59733333 L9.90578571,3.59733333 L1.20514286,14.806881 C0.476357143,15.5623571 0.141595238,16.3558333 0.279571429,17.1004524 L0.279571429,17.1004524 C0.491738095,18.2431667 1.59011905,18.9977381 2.73238095,18.7855714 L2.73238095,18.7855714 C3.31685714,18.677 4.15014286,17.9604286 4.62559524,17.4533095 L4.62559524,17.4533095 L15.9649762,8.79654762 C17.3375,7.75471429 18.4897143,6.48307143 18.5842619,4.84590476 L18.5842619,4.84590476 L18.5842619,4.40528571 C18.576119,4.25916667 18.559381,4.11033333 18.5340476,3.95878571 L18.5340476,3.95878571 C18.1730476,1.8145 16.419619,0.320285714 14.3377619,0.320285714 L14.3377619,0.320285714 L14.3309762,0.320285714 Z" id="Fill-10" fill="url(#linearGradient-12)" mask="url(#mask-11)"></path>
                </g>
                <polygon id="Fill-13" fill="#DB0080" points="52 16 54.4504898 16 54.4504898 21.9325827 54.5675813 21.9325827 60.2657195 16 63.5719137 16 57.1346942 22.4659342 64 30 60.5575114 30 54.5867843 23.1183374 54.4504898 23.1183374 54.4504898 30 52 30"></polygon>
                <polygon id="Fill-14" fill="#DB0080" points="69 16 77.6675567 16 77.6675567 18.2543624 71.3284379 18.2543624 71.3284379 21.6944794 77.3346684 21.6944794 77.3346684 23.9488418 71.3284379 23.9488418 71.3284379 27.7461138 78 27.7461138 78 30 69 30"></polygon>
                <polygon id="Fill-15" fill="#DB0080" points="86 30 89 30 89 16 86 16"></polygon>
                <g id="Group-22" transform="translate(96.000000, 10.000000)" fill="#DB0080">
                    <path d="M0.0805577982,6.31466667 L4.67307156,6.31466667 C5.30737431,6.31466667 5.92009908,6.37288889 6.51214495,6.49022222 C7.10239266,6.60711111 7.62835596,6.80666667 8.08868624,7.08977778 C8.54901651,7.37288889 8.91629174,7.75377778 9.19051193,8.23377778 C9.46383303,8.71377778 9.60139266,9.32266667 9.60139266,10.0608889 C9.60139266,11.0084444 9.3361633,11.8022222 8.80750275,12.4417778 C8.27839266,13.0817778 7.5231633,13.4693333 6.53956697,13.6044444 L10.0486862,19.3808889 L7.21163119,19.3808889 L4.15025505,13.8444444 L2.43300734,13.8444444 L2.43300734,19.3808889 L0.0805577982,19.3808889 L0.0805577982,6.31466667 Z M4.26264037,11.8515556 C4.59799817,11.8515556 4.93425505,11.8355556 5.27006239,11.8048889 C5.60586972,11.7742222 5.91470459,11.7008889 6.19431927,11.5835556 C6.47438349,11.4671111 6.70140183,11.2884444 6.87537431,11.048 C7.04934679,10.8084444 7.1365578,10.4733333 7.1365578,10.0426667 C7.1365578,9.66133333 7.05608991,9.35333333 6.89425505,9.11955556 C6.73242018,8.88622222 6.52068624,8.71066667 6.25950275,8.59377778 C5.99786972,8.47688889 5.70926422,8.4 5.39143853,8.36311111 C5.07406239,8.32622222 4.76612661,8.30755556 4.46763119,8.30755556 L2.43300734,8.30755556 L2.43300734,11.8515556 L4.26264037,11.8515556 Z" id="Fill-16"></path>
                    <path d="M15.7982743,12.9032 C15.7982743,11.8574222 15.9726963,10.9072 16.3206413,10.0516444 C16.6690358,9.19697778 17.1522927,8.46808889 17.7681642,7.86497778 C18.3835862,7.26186667 19.1181367,6.79742222 19.9700174,6.47164444 C20.8232468,6.14586667 21.7596413,5.98231111 22.7796505,5.98231111 C23.8122468,5.97031111 24.7589807,6.12097778 25.6176046,6.43431111 C26.4757789,6.74808889 27.2161734,7.20675556 27.8383385,7.80986667 C28.4600541,8.41253333 28.9460083,9.13831111 29.2944028,9.9872 C29.6432468,10.8360889 29.8172193,11.7836444 29.8172193,12.8294222 C29.8172193,13.8507556 29.6432468,14.7796444 29.2944028,15.6160889 C28.9460083,16.4534222 28.4600541,17.1725333 27.8383385,17.7756444 C27.2161734,18.3787556 26.4757789,18.8489778 25.6176046,19.1872 C24.7589807,19.5258667 23.8122468,19.7009778 22.7796505,19.7134222 C21.7596413,19.7134222 20.8232468,19.5503111 19.9700174,19.2240889 C19.1181367,18.8983111 18.3835862,18.4369778 17.7681642,17.8400889 C17.1522927,17.2436444 16.6690358,16.5267556 16.3206413,15.6903111 C15.9726963,14.8534222 15.7982743,13.9245333 15.7982743,12.9032 M18.2622101,12.7556444 C18.2622101,13.4569778 18.3714486,14.1027556 18.5890266,14.6934222 C18.806155,15.2840889 19.1145404,15.7947556 19.5132835,16.2254222 C19.9111275,16.6560889 20.3871917,16.9943111 20.9410266,17.2405333 C21.4948615,17.4867556 22.1138798,17.6094222 22.7985312,17.6094222 C23.4831826,17.6094222 24.1053477,17.4867556 24.6654761,17.2405333 C25.2256046,16.9943111 25.7039165,16.6560889 26.1031092,16.2254222 C26.5009532,15.7947556 26.808889,15.2840889 27.0269165,14.6934222 C27.2435954,14.1027556 27.3528339,13.4569778 27.3528339,12.7556444 C27.3528339,12.1036444 27.2435954,11.4947556 27.0269165,10.9285333 C26.808889,10.3627556 26.5009532,9.8672 26.1031092,9.44275556 C25.7039165,9.01831111 25.2256046,8.68631111 24.6654761,8.44631111 C24.1053477,8.20631111 23.4831826,8.08631111 22.7985312,8.08631111 C22.1138798,8.08631111 21.4948615,8.20631111 20.9410266,8.44631111 C20.3871917,8.68631111 19.9111275,9.01831111 19.5132835,9.44275556 C19.1145404,9.8672 18.806155,10.3627556 18.5890266,10.9285333 C18.3714486,11.4947556 18.2622101,12.1036444 18.2622101,12.7556444 M24.0941092,0.964977778 L21.6382651,3.22942222 C21.4400174,3.37697778 21.3321275,3.54764444 21.3357239,3.72497778 C21.3420174,3.99697778 21.5708339,4.21208889 21.8450541,4.20586667 C21.9862101,4.20231111 22.2082835,4.06808889 22.3382009,3.96853333 L25.3137147,2.39164444 C25.7362835,2.16942222 26.0999624,1.86275556 26.0963925,1.37031111 C26.0927697,0.801866667 25.6531183,0.356088889 25.078155,0.36006218 C24.6672743,0.362311111 24.3521459,0.638755556 24.0941092,0.964977778" id="Fill-18"></path>
                    <polygon id="Fill-20" points="36.7243312 6.31466667 39.8423495 6.31466667 46.2447165 16.0217778 46.2815789 16.0217778 46.2815789 6.31466667 48.6335789 6.31466667 48.6335789 19.3808889 45.6472761 19.3808889 39.1136431 9.36 39.0763312 9.36 39.0763312 19.3808889 36.7243312 19.3808889"></polygon>
                </g>
            </g>
        </g>
    </g>
</svg>